<?xml version="1.0" encoding="UTF-8" standalone="no"?>
<svg
   version="1.1"
   viewBox="0 0 619.49603 132.50395"
   fill="none"
   stroke="none"
   stroke-linecap="square"
   stroke-miterlimit="10"
   id="svg43"
   sodipodi:docname="xytrain.svg"
   width="619.49603"
   height="132.50395"
   inkscape:version="1.1.1 (3bf5ae0d25, 2021-09-20, custom)"
   xmlns:inkscape="http://www.inkscape.org/namespaces/inkscape"
   xmlns:sodipodi="http://sodipodi.sourceforge.net/DTD/sodipodi-0.dtd"
   xmlns="http://www.w3.org/2000/svg"
   xmlns:svg="http://www.w3.org/2000/svg">
  <defs
     id="defs47" />
  <sodipodi:namedview
     id="namedview45"
     pagecolor="#ffffff"
     bordercolor="#666666"
     borderopacity="1.0"
     inkscape:pageshadow="2"
     inkscape:pageopacity="0.0"
     inkscape:pagecheckerboard="0"
     showgrid="false"
     fit-margin-top="0"
     fit-margin-left="0"
     fit-margin-right="0"
     fit-margin-bottom="0"
     inkscape:zoom="1.3796296"
     inkscape:cx="290.2953"
     inkscape:cy="136.26846"
     inkscape:window-width="1920"
     inkscape:window-height="1080"
     inkscape:window-x="0"
     inkscape:window-y="0"
     inkscape:window-maximized="1"
     inkscape:current-layer="g41" />
  <clipPath
     id="p.0">
    <path
       d="M 0,0 H 720 V 540 H 0 Z"
       clip-rule="nonzero"
       id="path2" />
  </clipPath>
  <g
     clip-path="url(#p.0)"
     id="g41"
     transform="translate(-52.863518,-133.81364)">
    <path
       fill="#000000"
       fill-opacity="0"
       d="M 0,0 H 720 V 540 H 0 Z"
       fill-rule="evenodd"
       id="path5" />
    <path
       fill="#000000"
       fill-opacity="0"
       d="M 52.863518,133.81364 H 672.35955 V 266.31759 H 52.863518 Z"
       fill-rule="evenodd"
       id="path7" />
    <path
       fill="#000000"
       d="m 72.33227,155.3274 q 0,1.5625 -0.640625,2.90625 -0.625,1.32812 -1.734375,2.07812 -1.109375,0.73438 -2.375,0.73438 -1.890625,0 -3.328125,-1.59375 -1.421875,-1.60938 -1.421875,-4.125 0,-2.5 1.421875,-4.09375 1.4375,-1.60938 3.328125,-1.60938 1.265625,0 2.359375,0.75 1.109375,0.73438 1.75,2.0625 0.640625,1.32813 0.640625,2.89063 z m -0.796875,0 q 0,-1.89063 -1.109375,-3.40625 -1.09375,-1.51563 -2.84375,-1.51563 -1.640625,0 -2.8125,1.45313 -1.15625,1.4375 -1.15625,3.46875 0,2.17187 1.21875,3.5625 1.21875,1.375 2.75,1.375 1.75,0 2.84375,-1.5 1.109375,-1.51563 1.109375,-3.4375 z m 6.495605,-2.625 v 1.96875 q 1.53125,-1.375 2.28125,-1.76563 0.75,-0.40625 1.390625,-0.40625 0.703125,0 1.296875,0.46875 0.59375,0.46875 0.59375,0.71875 0,0.17188 -0.109375,0.29688 -0.109375,0.10937 -0.296875,0.10937 -0.09375,0 -0.15625,-0.0312 -0.0625,-0.0312 -0.234375,-0.21875 -0.328125,-0.3125 -0.578125,-0.4375 -0.234375,-0.125 -0.46875,-0.125 -0.5,0 -1.21875,0.40625 -0.71875,0.40625 -2.5,2 v 4.26563 h 3.453125 q 0.28125,0 0.40625,0.10937 0.125,0.10938 0.125,0.28125 0,0.17188 -0.125,0.28125 -0.125,0.10938 -0.40625,0.10938 H 75.37475 q -0.28125,0 -0.40625,-0.10938 -0.109375,-0.10937 -0.109375,-0.26562 0,-0.15625 0.109375,-0.26563 0.109375,-0.10937 0.40625,-0.10937 h 1.875 v -6.5 h -1.4375 q -0.28125,0 -0.40625,-0.10938 -0.109375,-0.10937 -0.109375,-0.28125 0,-0.17187 0.109375,-0.28125 0.125,-0.10937 0.40625,-0.10937 z m 12.72998,-4 v 2.01562 h -1.15625 v -2.01562 z m 0.01563,4 v 7.25 h 3.0625 q 0.296875,0 0.40625,0.10937 0.125,0.10938 0.125,0.28125 0,0.17188 -0.125,0.28125 -0.109375,0.10938 -0.40625,0.10938 h -6.90625 q -0.265625,0 -0.390625,-0.10938 -0.125,-0.10937 -0.125,-0.28125 0,-0.17187 0.125,-0.28125 0.125,-0.10937 0.390625,-0.10937 h 3.0625 v -6.46875 h -2.26563 q -0.28125,0 -0.40625,-0.10938 -0.125,-0.10937 -0.125,-0.28125 0,-0.17187 0.125,-0.28125 0.125,-0.10937 0.40625,-0.10937 z m 13.6206,1.42187 v -1.42187 h 1.82813 q 0.26562,0 0.39062,0.10937 0.125,0.10938 0.125,0.28125 0,0.17188 -0.125,0.28125 -0.125,0.10938 -0.39062,0.10938 h -1.0625 v 7.78125 q 0,0.78125 -0.32813,1.40625 -0.21875,0.40625 -0.75,0.82812 -0.51562,0.4375 -0.9375,0.625 -0.42187,0.1875 -1.14062,0.1875 h -2.203125 q -0.28125,0 -0.40625,-0.10937 -0.125,-0.0937 -0.125,-0.28125 0,-0.17188 0.125,-0.28125 0.125,-0.10938 0.40625,-0.10938 h 2.234375 q 0.6875,0 1.23437,-0.35937 0.54688,-0.34375 0.92188,-1.01563 0.20312,-0.39062 0.20312,-1 v -2.32812 q -1.26562,1.71875 -3.23437,1.71875 -1.609375,0 -2.78125,-1.1875 -1.15625,-1.20313 -1.15625,-2.89063 0,-1.67187 1.15625,-2.85937 1.171875,-1.1875 2.78125,-1.1875 1.96875,0 3.23437,1.70312 z m 0,2.34375 q 0,-1.35937 -0.95312,-2.3125 -0.9375,-0.95312 -2.25,-0.95312 -1.296875,0 -2.234375,0.95312 -0.9375,0.95313 -0.9375,2.3125 0,1.375 0.9375,2.32813 0.9375,0.95312 2.234375,0.95312 1.3125,0 2.25,-0.95312 0.95312,-0.95313 0.95312,-2.32813 z m 9.16748,-7.76562 v 2.01562 h -1.15625 v -2.01562 z m 0.0156,4 v 7.25 h 3.0625 q 0.29687,0 0.40625,0.10937 0.125,0.10938 0.125,0.28125 0,0.17188 -0.125,0.28125 -0.10938,0.10938 -0.40625,0.10938 h -6.90625 q -0.26563,0 -0.39063,-0.10938 -0.125,-0.10937 -0.125,-0.28125 0,-0.17187 0.125,-0.28125 0.125,-0.10937 0.39063,-0.10937 h 3.0625 v -6.46875 h -2.26563 q -0.28125,0 -0.40625,-0.10938 -0.125,-0.10937 -0.125,-0.28125 0,-0.17187 0.125,-0.28125 0.125,-0.10937 0.40625,-0.10937 z m 8.47998,0 v 1.17187 q 0.8125,-0.82812 1.46875,-1.14062 0.65625,-0.3125 1.48437,-0.3125 0.89063,0 1.625,0.375 0.51563,0.28125 0.9375,0.9375 0.42188,0.64062 0.42188,1.3125 v 4.90625 h 0.65624 q 0.28125,0 0.40625,0.10937 0.125,0.10938 0.125,0.28125 0,0.17188 -0.125,0.28125 -0.125,0.10938 -0.40625,0.10938 h -2.07812 q -0.29687,0 -0.42187,-0.10938 -0.10938,-0.10937 -0.10938,-0.28125 0,-0.17187 0.10938,-0.28125 0.125,-0.10937 0.42187,-0.10937 h 0.64063 v -4.78125 q 0,-0.82813 -0.60938,-1.39063 -0.59375,-0.57812 -1.60937,-0.57812 -0.76563,0 -1.32813,0.3125 -0.5625,0.3125 -1.60937,1.54687 v 4.89063 h 0.875 q 0.28125,0 0.39062,0.10937 0.125,0.10938 0.125,0.28125 0,0.17188 -0.125,0.28125 -0.10937,0.10938 -0.39062,0.10938 h -2.54688 q -0.26562,0 -0.39062,-0.10938 -0.125,-0.10937 -0.125,-0.28125 0,-0.17187 0.125,-0.28125 0.125,-0.10937 0.39062,-0.10937 h 0.89063 v -6.46875 h -0.65625 q -0.28125,0 -0.40625,-0.10938 -0.125,-0.10937 -0.125,-0.28125 0,-0.17187 0.125,-0.28125 0.125,-0.10937 0.40625,-0.10937 z m 16.15184,8.03125 v -1.125 q -1.6875,1.4375 -3.625,1.4375 -1.40625,0 -2.1875,-0.70313 -0.78125,-0.71875 -0.78125,-1.75 0,-1.14062 1.03125,-1.98437 1.04688,-0.84375 3.03125,-0.84375 0.54688,0 1.17188,0.0781 0.625,0.0625 1.35937,0.21875 v -1.26562 q 0,-0.64063 -0.59375,-1.10938 -0.59375,-0.48437 -1.78125,-0.48437 -0.90625,0 -2.54687,0.53125 -0.29688,0.0937 -0.375,0.0937 -0.15625,0 -0.26563,-0.10938 -0.10937,-0.10937 -0.10937,-0.28125 0,-0.15625 0.0937,-0.25 0.14062,-0.14062 1.0625,-0.375 1.4375,-0.39062 2.1875,-0.39062 1.46875,0 2.29687,0.73437 0.82813,0.71875 0.82813,1.64063 v 5.15625 h 1.03125 q 0.29687,0 0.40625,0.10937 0.125,0.10938 0.125,0.28125 0,0.17188 -0.125,0.28125 -0.10938,0.10938 -0.40625,0.10938 z m 0,-3.875 q -0.54687,-0.15625 -1.15625,-0.23438 -0.60937,-0.0781 -1.28125,-0.0781 -1.70312,0 -2.65625,0.73437 -0.73437,0.54688 -0.73437,1.3125 0,0.70313 0.54687,1.1875 0.5625,0.48438 1.625,0.48438 1,0 1.85938,-0.40625 0.875,-0.40625 1.79687,-1.28125 z m 9.55811,-7.76563 v 10.85938 h 3.0625 q 0.28125,0 0.40625,0.10937 0.125,0.10938 0.125,0.28125 0,0.17188 -0.125,0.28125 -0.125,0.10938 -0.40625,0.10938 h -6.90625 q -0.28125,0 -0.40625,-0.10938 -0.10938,-0.10937 -0.10938,-0.28125 0,-0.17187 0.10938,-0.28125 0.125,-0.10937 0.40625,-0.10937 h 3.0625 v -10.07813 h -2.23438 q -0.28125,0 -0.40625,-0.10937 -0.125,-0.10938 -0.125,-0.28125 0,-0.17188 0.10938,-0.28125 0.125,-0.10938 0.42187,-0.10938 z m 10.83935,3.60938 h 0.34375 q 0.51563,0 0.89063,0.375 0.375,0.35937 0.375,0.875 0,0.54687 -0.375,0.90625 -0.375,0.35937 -0.89063,0.35937 h -0.34375 q -0.51562,0 -0.89062,-0.35937 -0.35938,-0.375 -0.35938,-0.89063 0,-0.54687 0.375,-0.90625 0.375,-0.35937 0.875,-0.35937 z m 0,5.79687 h 0.34375 q 0.51563,0 0.89063,0.375 0.375,0.35938 0.375,0.875 0,0.53125 -0.375,0.90625 -0.375,0.35938 -0.89063,0.35938 h -0.34375 q -0.51562,0 -0.89062,-0.35938 -0.35938,-0.375 -0.35938,-0.89062 0,-0.54688 0.375,-0.90625 0.375,-0.35938 0.875,-0.35938 z"
       fill-rule="nonzero"
       id="path9" />
    <path
       fill="#000000"
       d="m 182.39769,150.81177 v 10.96875 h 1.125 q 0.67187,0 0.95312,0.25 0.29688,0.26562 0.29688,0.6875 0,0.40625 -0.29688,0.67187 -0.28125,0.26563 -0.95312,0.26563 h -3 v -14.70313 h 3 q 0.67187,0 0.95312,0.26563 0.28125,0.25 0.28125,0.67187 0,0.40625 -0.28125,0.67188 -0.28125,0.25 -0.95312,0.25 z m 11.22682,-2.17188 v 10.21875 h 1.89063 q 0.67187,0 0.95312,0.26563 0.29688,0.26562 0.29688,0.6875 0,0.40625 -0.29688,0.67187 -0.28125,0.25 -0.95312,0.25 h -5.64063 q -0.67187,0 -0.96875,-0.25 -0.28125,-0.26562 -0.28125,-0.6875 0,-0.40625 0.28125,-0.67187 0.29688,-0.26563 0.96875,-0.26563 h 1.89063 v -7.78125 l -1.67188,0.4375 q -0.40625,0.10938 -0.60937,0.10938 -0.34375,0 -0.60938,-0.28125 -0.25,-0.28125 -0.25,-0.6875 0,-0.375 0.1875,-0.59375 0.1875,-0.21875 0.79688,-0.375 z m 12.91432,5.85938 q 0.82813,0.5625 1.23438,1.3125 0.40625,0.73437 0.40625,1.65625 0,0.98437 -0.54688,1.82812 -0.53125,0.84375 -1.5625,1.28125 -1.03125,0.42188 -2.70312,0.42188 -2.15625,0 -3.25,-0.67188 -0.60938,-0.375 -0.60938,-0.90625 0,-0.40625 0.26563,-0.67187 0.26562,-0.28125 0.65625,-0.28125 0.25,0 0.54687,0.17187 0.39063,0.28125 0.75,0.375 0.54688,0.125 1.5,0.125 1.64063,0 2.35938,-0.42187 0.73437,-0.42188 0.73437,-1.20313 0,-0.57812 -0.42187,-1.10937 -0.42188,-0.53125 -1.14063,-0.8125 -0.40625,-0.17188 -1.39062,-0.23438 -0.45313,-0.0312 -0.70313,-0.28125 -0.25,-0.26562 -0.25,-0.64062 0,-0.40625 0.26563,-0.67188 0.28125,-0.28125 0.6875,-0.28125 0.9375,0 1,-0.0156 0.35937,-0.0312 0.71875,-0.23438 0.375,-0.20312 0.59375,-0.54687 0.23437,-0.35938 0.23437,-0.71875 0,-0.59375 -0.53125,-1.03125 -0.51562,-0.4375 -1.57812,-0.4375 -1.34375,0 -2.04688,0.78125 -0.21875,0.23437 -0.34375,0.29687 -0.1875,0.0937 -0.42187,0.0937 -0.39063,0 -0.67188,-0.26562 -0.26562,-0.26563 -0.26562,-0.67188 0,-0.625 0.84375,-1.21875 1.21875,-0.875 3.04687,-0.875 1.73438,0 2.78125,0.98438 1.04688,0.98437 1.04688,2.375 0,0.71875 -0.3125,1.34375 -0.3125,0.625 -0.92188,1.15625 z m 9.94558,5.29687 q 0,0.53125 -0.375,0.89063 -0.35938,0.34375 -1.01563,0.34375 -0.65625,0 -1.03125,-0.34375 -0.375,-0.35938 -0.375,-0.89063 0,-0.53125 0.375,-0.875 0.375,-0.35937 1.03125,-0.35937 0.65625,0 1.01563,0.35937 0.375,0.34375 0.375,0.875 z m 12.44557,-5.29687 q 0.82812,0.5625 1.23437,1.3125 0.40625,0.73437 0.40625,1.65625 0,0.98437 -0.54687,1.82812 -0.53125,0.84375 -1.5625,1.28125 -1.03125,0.42188 -2.70313,0.42188 -2.15625,0 -3.25,-0.67188 -0.60937,-0.375 -0.60937,-0.90625 0,-0.40625 0.26562,-0.67187 0.26563,-0.28125 0.65625,-0.28125 0.25,0 0.54688,0.17187 0.39062,0.28125 0.75,0.375 0.54687,0.125 1.5,0.125 1.64062,0 2.35937,-0.42187 0.73438,-0.42188 0.73438,-1.20313 0,-0.57812 -0.42188,-1.10937 -0.42187,-0.53125 -1.14062,-0.8125 -0.40625,-0.17188 -1.39063,-0.23438 -0.45312,-0.0312 -0.70312,-0.28125 -0.25,-0.26562 -0.25,-0.64062 0,-0.40625 0.26562,-0.67188 0.28125,-0.28125 0.6875,-0.28125 0.9375,0 1,-0.0156 0.35938,-0.0312 0.71875,-0.23438 0.375,-0.20312 0.59375,-0.54687 0.23438,-0.35938 0.23438,-0.71875 0,-0.59375 -0.53125,-1.03125 -0.51563,-0.4375 -1.57813,-0.4375 -1.34375,0 -2.04687,0.78125 -0.21875,0.23437 -0.34375,0.29687 -0.1875,0.0937 -0.42188,0.0937 -0.39062,0 -0.67187,-0.26562 -0.26563,-0.26563 -0.26563,-0.67188 0,-0.625 0.84375,-1.21875 1.21875,-0.875 3.04688,-0.875 1.73437,0 2.78125,0.98438 1.04687,0.98437 1.04687,2.375 0,0.71875 -0.3125,1.34375 -0.3125,0.625 -0.92187,1.15625 z m 8.08619,3.71875 h 2.5 l -2.6875,5.0625 q -0.23437,0.45312 -0.59375,0.45312 -0.23437,0 -0.40625,-0.15625 -0.17187,-0.15625 -0.17187,-0.34375 0,-0.14062 0.0625,-0.375 z m 34.97736,-9.57813 v 10.21875 h 1.89063 q 0.67187,0 0.95312,0.26563 0.29688,0.26562 0.29688,0.6875 0,0.40625 -0.29688,0.67187 -0.28125,0.25 -0.95312,0.25 h -5.64063 q -0.67187,0 -0.96875,-0.25 -0.28125,-0.26562 -0.28125,-0.6875 0,-0.40625 0.28125,-0.67187 0.29688,-0.26563 0.96875,-0.26563 h 1.89063 v -7.78125 l -1.67188,0.4375 q -0.40625,0.10938 -0.60937,0.10938 -0.34375,0 -0.60938,-0.28125 -0.25,-0.28125 -0.25,-0.6875 0,-0.375 0.1875,-0.59375 0.1875,-0.21875 0.79688,-0.375 z m 8.67993,2.17188 v 2.21875 q 1.03125,-0.32813 1.875,-0.32813 1.73438,0 2.85938,1.1875 1.14062,1.17188 1.14062,3.03125 0,1.90625 -1.15625,3 -1.14062,1.07813 -3.51562,1.07813 -2.09375,0 -3.32813,-0.78125 -0.70312,-0.45313 -0.70312,-1.04688 0,-0.375 0.28125,-0.65625 0.28125,-0.28125 0.65625,-0.28125 0.3125,0 0.6875,0.3125 0.375,0.29688 0.78125,0.42188 0.59375,0.17187 1.5,0.17187 1.70312,0 2.3125,-0.53125 0.625,-0.54687 0.625,-1.67187 0,-1.10938 -0.60938,-1.73438 -0.59375,-0.625 -1.53125,-0.625 -1,0 -2.29687,0.65625 -0.29688,0.15625 -0.51563,0.15625 -0.39062,0 -0.67187,-0.29687 -0.26563,-0.29688 -0.26563,-0.75 v -5.39063 h 5.71875 q 0.67188,0 0.95313,0.26563 0.29687,0.25 0.29687,0.67187 0,0.40625 -0.29687,0.67188 -0.28125,0.25 -0.95313,0.25 z m 14.17997,8.98437 q 0,0.53125 -0.375,0.89063 -0.35938,0.34375 -1.01563,0.34375 -0.65625,0 -1.03125,-0.34375 -0.375,-0.35938 -0.375,-0.89063 0,-0.53125 0.375,-0.875 0.375,-0.35937 1.03125,-0.35937 0.65625,0 1.01563,0.35937 0.375,0.34375 0.375,0.875 z m 11.71118,-8.98437 h -4.28125 q -0.0312,0.54687 -0.28125,0.79687 -0.25,0.23438 -0.64063,0.23438 -0.42187,0 -0.6875,-0.28125 -0.25,-0.28125 -0.25,-0.95313 v -1.65625 h 8.09375 v 1.85938 l -3.01562,9 q -0.1875,0.5625 -0.42188,0.75 -0.23437,0.1875 -0.5625,0.1875 -0.39062,0 -0.67187,-0.26563 -0.28125,-0.28125 -0.28125,-0.64062 0,-0.1875 0.15625,-0.625 z m 8.82058,7.40625 h 2.5 l -2.6875,5.0625 q -0.23437,0.45312 -0.59375,0.45312 -0.23437,0 -0.40625,-0.15625 -0.17187,-0.15625 -0.17187,-0.34375 0,-0.14062 0.0625,-0.375 z m 34.97736,-9.57813 v 10.21875 h 1.89062 q 0.67188,0 0.95313,0.26563 0.29687,0.26562 0.29687,0.6875 0,0.40625 -0.29687,0.67187 -0.28125,0.25 -0.95313,0.25 h -5.64062 q -0.67188,0 -0.96875,-0.25 -0.28125,-0.26562 -0.28125,-0.6875 0,-0.40625 0.28125,-0.67187 0.29687,-0.26563 0.96875,-0.26563 h 1.89062 v -7.78125 l -1.67187,0.4375 q -0.40625,0.10938 -0.60938,0.10938 -0.34375,0 -0.60937,-0.28125 -0.25,-0.28125 -0.25,-0.6875 0,-0.375 0.1875,-0.59375 0.1875,-0.21875 0.79687,-0.375 z m 8.67993,2.17188 v 2.21875 q 1.03125,-0.32813 1.875,-0.32813 1.73438,0 2.85938,1.1875 1.14062,1.17188 1.14062,3.03125 0,1.90625 -1.15625,3 -1.14062,1.07813 -3.51562,1.07813 -2.09375,0 -3.32813,-0.78125 -0.70312,-0.45313 -0.70312,-1.04688 0,-0.375 0.28125,-0.65625 0.28125,-0.28125 0.65625,-0.28125 0.3125,0 0.6875,0.3125 0.375,0.29688 0.78125,0.42188 0.59375,0.17187 1.5,0.17187 1.70312,0 2.3125,-0.53125 0.625,-0.54687 0.625,-1.67187 0,-1.10938 -0.60938,-1.73438 -0.59375,-0.625 -1.53125,-0.625 -1,0 -2.29687,0.65625 -0.29688,0.15625 -0.51563,0.15625 -0.39062,0 -0.67187,-0.29687 -0.26563,-0.29688 -0.26563,-0.75 v -5.39063 h 5.71875 q 0.67188,0 0.95313,0.26563 0.29687,0.25 0.29687,0.67187 0,0.40625 -0.29687,0.67188 -0.28125,0.25 -0.95313,0.25 z m 14.17993,8.98437 q 0,0.53125 -0.375,0.89063 -0.35937,0.34375 -1.01562,0.34375 -0.65625,0 -1.03125,-0.34375 -0.375,-0.35938 -0.375,-0.89063 0,-0.53125 0.375,-0.875 0.375,-0.35937 1.03125,-0.35937 0.65625,0 1.01562,0.35937 0.375,0.34375 0.375,0.875 z m 8.21122,-8.98437 v 2.21875 q 1.03125,-0.32813 1.875,-0.32813 1.73437,0 2.85937,1.1875 1.14063,1.17188 1.14063,3.03125 0,1.90625 -1.15625,3 -1.14063,1.07813 -3.51563,1.07813 -2.09375,0 -3.32812,-0.78125 -0.70313,-0.45313 -0.70313,-1.04688 0,-0.375 0.28125,-0.65625 0.28125,-0.28125 0.65625,-0.28125 0.3125,0 0.6875,0.3125 0.375,0.29688 0.78125,0.42188 0.59375,0.17187 1.5,0.17187 1.70313,0 2.3125,-0.53125 0.625,-0.54687 0.625,-1.67187 0,-1.10938 -0.60937,-1.73438 -0.59375,-0.625 -1.53125,-0.625 -1,0 -2.29688,0.65625 -0.29687,0.15625 -0.51562,0.15625 -0.39063,0 -0.67188,-0.29687 -0.26562,-0.29688 -0.26562,-0.75 v -5.39063 h 5.71875 q 0.67187,0 0.95312,0.26563 0.29688,0.25 0.29688,0.67187 0,0.40625 -0.29688,0.67188 -0.28125,0.25 -0.95312,0.25 z m 12.32058,7.40625 h 2.5 l -2.6875,5.0625 q -0.23437,0.45312 -0.59375,0.45312 -0.23437,0 -0.40625,-0.15625 -0.17187,-0.15625 -0.17187,-0.34375 0,-0.14062 0.0625,-0.375 z m 34.97733,-9.57813 v 10.21875 h 1.89062 q 0.67188,0 0.95313,0.26563 0.29687,0.26562 0.29687,0.6875 0,0.40625 -0.29687,0.67187 -0.28125,0.25 -0.95313,0.25 h -5.64062 q -0.67188,0 -0.96875,-0.25 -0.28125,-0.26562 -0.28125,-0.6875 0,-0.40625 0.28125,-0.67187 0.29687,-0.26563 0.96875,-0.26563 h 1.89062 v -7.78125 l -1.67187,0.4375 q -0.40625,0.10938 -0.60938,0.10938 -0.34375,0 -0.60937,-0.28125 -0.25,-0.28125 -0.25,-0.6875 0,-0.375 0.1875,-0.59375 0.1875,-0.21875 0.79687,-0.375 z m 12.97683,0.3125 v 7.29688 q 0.59375,0 0.875,0.26562 0.28125,0.25 0.28125,0.67188 0,0.40625 -0.28125,0.67187 -0.28125,0.26563 -0.875,0.26563 v 0.73437 q 0.59375,0 0.875,0.26563 0.28125,0.26562 0.28125,0.6875 0,0.40625 -0.28125,0.67187 -0.28125,0.25 -0.95312,0.25 h -2.51563 q -0.67187,0 -0.96875,-0.25 -0.28125,-0.26562 -0.28125,-0.6875 0,-0.40625 0.28125,-0.67187 0.29688,-0.26563 0.96875,-0.26563 h 0.73438 v -0.73437 h -5.07813 v -1.5625 l 4.46875,-7.60938 z m -1.85937,7.29688 v -4.59375 l -2.70313,4.59375 z m 11.74243,3.54687 q 0,0.53125 -0.375,0.89063 -0.35937,0.34375 -1.01562,0.34375 -0.65625,0 -1.03125,-0.34375 -0.375,-0.35938 -0.375,-0.89063 0,-0.53125 0.375,-0.875 0.375,-0.35937 1.03125,-0.35937 0.65625,0 1.01562,0.35937 0.375,0.34375 0.375,0.875 z m 8.21118,-8.98437 v 2.21875 q 1.03125,-0.32813 1.875,-0.32813 1.73438,0 2.85938,1.1875 1.14062,1.17188 1.14062,3.03125 0,1.90625 -1.15625,3 -1.14062,1.07813 -3.51562,1.07813 -2.09375,0 -3.32813,-0.78125 -0.70312,-0.45313 -0.70312,-1.04688 0,-0.375 0.28125,-0.65625 0.28125,-0.28125 0.65625,-0.28125 0.3125,0 0.6875,0.3125 0.375,0.29688 0.78125,0.42188 0.59375,0.17187 1.5,0.17187 1.70312,0 2.3125,-0.53125 0.625,-0.54687 0.625,-1.67187 0,-1.10938 -0.60938,-1.73438 -0.59375,-0.625 -1.53125,-0.625 -1,0 -2.29687,0.65625 -0.29688,0.15625 -0.51563,0.15625 -0.39062,0 -0.67187,-0.29687 -0.26563,-0.29688 -0.26563,-0.75 v -5.39063 h 5.71875 q 0.67188,0 0.95313,0.26563 0.29687,0.25 0.29687,0.67187 0,0.40625 -0.29687,0.67188 -0.28125,0.25 -0.95313,0.25 z m 12.32056,7.40625 h 2.5 l -2.6875,5.0625 q -0.23437,0.45312 -0.59375,0.45312 -0.23437,0 -0.40625,-0.15625 -0.17187,-0.15625 -0.17187,-0.34375 0,-0.14062 0.0625,-0.375 z m 35.44605,1.57812 q 0,0.53125 -0.375,0.89063 -0.35938,0.34375 -1.01563,0.34375 -0.65625,0 -1.03125,-0.34375 -0.375,-0.35938 -0.375,-0.89063 0,-0.53125 0.375,-0.875 0.375,-0.35937 1.03125,-0.35937 0.65625,0 1.01563,0.35937 0.375,0.34375 0.375,0.875 z m 11.19555,0 q 0,0.53125 -0.375,0.89063 -0.35937,0.34375 -1.01562,0.34375 -0.65625,0 -1.03125,-0.34375 -0.375,-0.35938 -0.375,-0.89063 0,-0.53125 0.375,-0.875 0.375,-0.35937 1.03125,-0.35937 0.65625,0 1.01562,0.35937 0.375,0.34375 0.375,0.875 z m 11.19556,0 q 0,0.53125 -0.375,0.89063 -0.35938,0.34375 -1.01563,0.34375 -0.65625,0 -1.03125,-0.34375 -0.375,-0.35938 -0.375,-0.89063 0,-0.53125 0.375,-0.875 0.375,-0.35937 1.03125,-0.35937 0.65625,0 1.01563,0.35937 0.375,0.34375 0.375,0.875 z m 9.33618,-1.57812 h 2.5 l -2.6875,5.0625 q -0.23437,0.45312 -0.59375,0.45312 -0.23437,0 -0.40625,-0.15625 -0.17187,-0.15625 -0.17187,-0.34375 0,-0.14062 0.0625,-0.375 z m 34.9773,-9.57813 v 10.21875 h 1.89062 q 0.67188,0 0.95313,0.26563 0.29687,0.26562 0.29687,0.6875 0,0.40625 -0.29687,0.67187 -0.28125,0.25 -0.95313,0.25 h -5.64062 q -0.67188,0 -0.96875,-0.25 -0.28125,-0.26562 -0.28125,-0.6875 0,-0.40625 0.28125,-0.67187 0.29687,-0.26563 0.96875,-0.26563 h 1.89062 v -7.78125 l -1.67187,0.4375 q -0.40625,0.10938 -0.60938,0.10938 -0.34375,0 -0.60937,-0.28125 -0.25,-0.28125 -0.25,-0.6875 0,-0.375 0.1875,-0.59375 0.1875,-0.21875 0.79687,-0.375 z m 12.9143,5.85938 q 0.82813,0.5625 1.23438,1.3125 0.40625,0.73437 0.40625,1.65625 0,0.98437 -0.54688,1.82812 -0.53125,0.84375 -1.5625,1.28125 -1.03125,0.42188 -2.70312,0.42188 -2.15625,0 -3.25,-0.67188 -0.60938,-0.375 -0.60938,-0.90625 0,-0.40625 0.26563,-0.67187 0.26562,-0.28125 0.65625,-0.28125 0.25,0 0.54687,0.17187 0.39063,0.28125 0.75,0.375 0.54688,0.125 1.5,0.125 1.64063,0 2.35938,-0.42187 0.73437,-0.42188 0.73437,-1.20313 0,-0.57812 -0.42187,-1.10937 -0.42188,-0.53125 -1.14063,-0.8125 -0.40625,-0.17188 -1.39062,-0.23438 -0.45313,-0.0312 -0.70313,-0.28125 -0.25,-0.26562 -0.25,-0.64062 0,-0.40625 0.26563,-0.67188 0.28125,-0.28125 0.6875,-0.28125 0.9375,0 1,-0.0156 0.35937,-0.0312 0.71875,-0.23438 0.375,-0.20312 0.59375,-0.54687 0.23437,-0.35938 0.23437,-0.71875 0,-0.59375 -0.53125,-1.03125 -0.51562,-0.4375 -1.57812,-0.4375 -1.34375,0 -2.04688,0.78125 -0.21875,0.23437 -0.34375,0.29687 -0.1875,0.0937 -0.42187,0.0937 -0.39063,0 -0.67188,-0.26562 -0.26562,-0.26563 -0.26562,-0.67188 0,-0.625 0.84375,-1.21875 1.21875,-0.875 3.04687,-0.875 1.73438,0 2.78125,0.98438 1.04688,0.98437 1.04688,2.375 0,0.71875 -0.3125,1.34375 -0.3125,0.625 -0.92188,1.15625 z m 9.94556,5.29687 q 0,0.53125 -0.375,0.89063 -0.35937,0.34375 -1.01562,0.34375 -0.65625,0 -1.03125,-0.34375 -0.375,-0.35938 -0.375,-0.89063 0,-0.53125 0.375,-0.875 0.375,-0.35937 1.03125,-0.35937 0.65625,0 1.01562,0.35937 0.375,0.34375 0.375,0.875 z m 10.72681,-11.15625 v 10.21875 h 1.89062 q 0.67188,0 0.95313,0.26563 0.29687,0.26562 0.29687,0.6875 0,0.40625 -0.29687,0.67187 -0.28125,0.25 -0.95313,0.25 h -5.64062 q -0.67188,0 -0.96875,-0.25 -0.28125,-0.26562 -0.28125,-0.6875 0,-0.40625 0.28125,-0.67187 0.29687,-0.26563 0.96875,-0.26563 h 1.89062 v -7.78125 l -1.67187,0.4375 q -0.40625,0.10938 -0.60938,0.10938 -0.34375,0 -0.60937,-0.28125 -0.25,-0.28125 -0.25,-0.6875 0,-0.375 0.1875,-0.59375 0.1875,-0.21875 0.79687,-0.375 z m 9.33618,13.14063 v -10.96875 h -1.14062 q -0.67188,0 -0.95313,-0.25 -0.28125,-0.26563 -0.28125,-0.67188 0,-0.42187 0.28125,-0.67187 0.28125,-0.26563 0.95313,-0.26563 h 3 v 14.70313 h -2.98438 q -0.67187,0 -0.96875,-0.26563 -0.28125,-0.26562 -0.28125,-0.67187 0,-0.42188 0.28125,-0.6875 0.29688,-0.25 0.96875,-0.25 z"
       fill-rule="nonzero"
       id="path11" />
    <path
       fill="#000000"
       d="m 68.03539,199.97115 3.703125,4.78125 h 0.296875 q 0.28125,0 0.390625,0.10937 0.125,0.10938 0.125,0.28125 0,0.17188 -0.125,0.28125 -0.109375,0.10938 -0.390625,0.10938 h -2.515625 q -0.265625,0 -0.390625,-0.10938 -0.125,-0.10937 -0.125,-0.28125 0,-0.17187 0.125,-0.28125 0.125,-0.10937 0.390625,-0.10937 h 1.25 l -3.21875,-4.14063 -3.1875,4.14063 h 1.25 q 0.28125,0 0.390625,0.10937 0.125,0.10938 0.125,0.28125 0,0.17188 -0.125,0.28125 -0.109375,0.10938 -0.390625,0.10938 H 63.12914 q -0.28125,0 -0.40625,-0.10938 -0.109375,-0.10937 -0.109375,-0.28125 0,-0.125 0.0625,-0.21875 0.07813,-0.10937 0.171875,-0.14062 0.09375,-0.0312 0.5625,-0.0312 l 3.65625,-4.78125 -3.484375,-4.51563 H 63.28539 q -0.265625,0 -0.390625,-0.0937 -0.125,-0.10937 -0.125,-0.29687 0,-0.17188 0.125,-0.28125 0.125,-0.10938 0.390625,-0.10938 h 2.125 q 0.296875,0 0.40625,0.10938 0.125,0.10937 0.125,0.28125 0,0.1875 -0.125,0.29687 -0.109375,0.0937 -0.40625,0.0937 h -0.859375 l 3,3.89063 2.984375,-3.89063 h -0.875 q -0.28125,0 -0.40625,-0.0937 -0.109375,-0.10937 -0.109375,-0.29687 0,-0.17188 0.109375,-0.28125 0.125,-0.10938 0.40625,-0.10938 h 2.140625 q 0.28125,0 0.390625,0.10938 0.125,0.10937 0.125,0.28125 0,0.1875 -0.125,0.29687 -0.109375,0.0937 -0.390625,0.0937 H 71.50414 Z m 16.10498,10.76562 H 73.780995 q -0.28125,0 -0.40625,-0.10937 -0.109375,-0.10938 -0.109375,-0.28125 0,-0.17188 0.109375,-0.28125 0.125,-0.10938 0.40625,-0.10938 H 84.14037 q 0.296875,0 0.40625,0.10938 0.125,0.10937 0.125,0.28125 0,0.17187 -0.125,0.28125 -0.109375,0.10937 -0.40625,0.10937 z m 4.620605,-13.23437 h 4.234375 q 0.28125,0 0.390625,0.10937 0.125,0.10938 0.125,0.28125 0,0.17188 -0.125,0.28125 -0.109375,0.10938 -0.390625,0.10938 h -4.234375 v 5.1875 q 0,0.6875 0.546875,1.14062 0.546875,0.45313 1.59375,0.45313 0.78125,0 1.703125,-0.23438 0.921875,-0.25 1.4375,-0.54687 0.1875,-0.10938 0.296875,-0.10938 0.15625,0 0.265625,0.125 0.109375,0.10938 0.109375,0.26563 0,0.14062 -0.125,0.25 -0.296875,0.3125 -1.4375,0.67187 -1.140625,0.35938 -2.1875,0.35938 -1.375,0 -2.1875,-0.64063 -0.796875,-0.64062 -0.796875,-1.73437 v -5.1875 h -1.4375 q -0.28125,0 -0.40625,-0.10938 -0.109375,-0.10937 -0.109375,-0.28125 0,-0.17187 0.109375,-0.28125 0.125,-0.10937 0.40625,-0.10937 h 1.4375 v -2.29688 q 0,-0.28125 0.109375,-0.40625 0.109375,-0.125 0.28125,-0.125 0.171875,0 0.28125,0.125 0.109375,0.125 0.109375,0.40625 z m 12.073735,0 v 1.96875 q 1.53125,-1.375 2.28125,-1.76563 0.75,-0.40625 1.39062,-0.40625 0.70313,0 1.29688,0.46875 0.59375,0.46875 0.59375,0.71875 0,0.17188 -0.10938,0.29688 -0.10937,0.10937 -0.29687,0.10937 -0.0937,0 -0.15625,-0.0312 -0.0625,-0.0312 -0.23438,-0.21875 -0.32812,-0.3125 -0.57812,-0.4375 -0.23438,-0.125 -0.46875,-0.125 -0.5,0 -1.21875,0.40625 -0.71875,0.40625 -2.5,2 v 4.26563 h 3.45312 q 0.28125,0 0.40625,0.10937 0.125,0.10938 0.125,0.28125 0,0.17188 -0.125,0.28125 -0.125,0.10938 -0.40625,0.10938 h -6.109375 q -0.28125,0 -0.40625,-0.10938 -0.109375,-0.10937 -0.109375,-0.26562 0,-0.15625 0.109375,-0.26563 0.109375,-0.10937 0.40625,-0.10937 h 1.875005 v -6.5 h -1.437505 q -0.28125,0 -0.40625,-0.10938 -0.109375,-0.10937 -0.109375,-0.28125 0,-0.17187 0.109375,-0.28125 0.125,-0.10937 0.40625,-0.10937 z m 14.57373,8.03125 v -1.125 q -1.6875,1.4375 -3.625,1.4375 -1.40625,0 -2.1875,-0.70313 -0.78125,-0.71875 -0.78125,-1.75 0,-1.14062 1.03125,-1.98437 1.04687,-0.84375 3.03125,-0.84375 0.54687,0 1.17187,0.0781 0.625,0.0625 1.35938,0.21875 v -1.26562 q 0,-0.64063 -0.59375,-1.10938 -0.59375,-0.48437 -1.78125,-0.48437 -0.90625,0 -2.54688,0.53125 -0.29687,0.0937 -0.375,0.0937 -0.15625,0 -0.26562,-0.10938 -0.10938,-0.10937 -0.10938,-0.28125 0,-0.15625 0.0937,-0.25 0.14063,-0.14062 1.0625,-0.375 1.4375,-0.39062 2.1875,-0.39062 1.46875,0 2.29688,0.73437 0.82812,0.71875 0.82812,1.64063 v 5.15625 h 1.03125 q 0.29688,0 0.40625,0.10937 0.125,0.10938 0.125,0.28125 0,0.17188 -0.125,0.28125 -0.10937,0.10938 -0.40625,0.10938 z m 0,-3.875 q -0.54688,-0.15625 -1.15625,-0.23438 -0.60938,-0.0781 -1.28125,-0.0781 -1.70313,0 -2.65625,0.73437 -0.73438,0.54688 -0.73438,1.3125 0,0.70313 0.54688,1.1875 0.5625,0.48438 1.625,0.48438 1,0 1.85937,-0.40625 0.875,-0.40625 1.79688,-1.28125 z m 9.5581,-8.15625 v 2.01562 h -1.15625 v -2.01562 z m 0.0156,4 v 7.25 h 3.06249 q 0.29687,0 0.40625,0.10937 0.125,0.10938 0.125,0.28125 0,0.17188 -0.125,0.28125 -0.10938,0.10938 -0.40625,0.10938 h -6.90624 q -0.26563,0 -0.39063,-0.10938 -0.125,-0.10937 -0.125,-0.28125 0,-0.17187 0.125,-0.28125 0.125,-0.10937 0.39063,-0.10937 h 3.0625 v -6.46875 h -2.26563 q -0.28125,0 -0.40625,-0.10938 -0.125,-0.10937 -0.125,-0.28125 0,-0.17187 0.125,-0.28125 0.125,-0.10937 0.40625,-0.10937 z m 8.47997,0 v 1.17187 q 0.8125,-0.82812 1.46875,-1.14062 0.65625,-0.3125 1.48437,-0.3125 0.89063,0 1.625,0.375 0.51563,0.28125 0.9375,0.9375 0.42188,0.64062 0.42188,1.3125 v 4.90625 h 0.65625 q 0.28125,0 0.40625,0.10937 0.125,0.10938 0.125,0.28125 0,0.17188 -0.125,0.28125 -0.125,0.10938 -0.40625,0.10938 h -2.07813 q -0.29687,0 -0.42187,-0.10938 -0.10938,-0.10937 -0.10938,-0.28125 0,-0.17187 0.10938,-0.28125 0.125,-0.10937 0.42187,-0.10937 h 0.64063 v -4.78125 q 0,-0.82813 -0.60938,-1.39063 -0.59375,-0.57812 -1.60937,-0.57812 -0.76563,0 -1.32813,0.3125 -0.5625,0.3125 -1.60937,1.54687 v 4.89063 h 0.875 q 0.28125,0 0.39062,0.10937 0.125,0.10938 0.125,0.28125 0,0.17188 -0.125,0.28125 -0.10937,0.10938 -0.39062,0.10938 h -2.54688 q -0.26562,0 -0.39062,-0.10938 -0.125,-0.10937 -0.125,-0.28125 0,-0.17187 0.125,-0.28125 0.125,-0.10937 0.39062,-0.10937 h 0.89063 v -6.46875 h -0.65625 q -0.28125,0 -0.40625,-0.10938 -0.125,-0.10937 -0.125,-0.28125 0,-0.17187 0.125,-0.28125 0.125,-0.10937 0.40625,-0.10937 z m 13.7456,0 h 0.34375 q 0.51563,0 0.89063,0.375 0.375,0.35937 0.375,0.875 0,0.54687 -0.375,0.90625 -0.375,0.35937 -0.89063,0.35937 h -0.34375 q -0.51562,0 -0.89062,-0.35937 -0.35938,-0.375 -0.35938,-0.89063 0,-0.54687 0.375,-0.90625 0.375,-0.35937 0.875,-0.35937 z m 0,5.79687 h 0.34375 q 0.51563,0 0.89063,0.375 0.375,0.35938 0.375,0.875 0,0.53125 -0.375,0.90625 -0.375,0.35938 -0.89063,0.35938 h -0.34375 q -0.51562,0 -0.89062,-0.35938 -0.35938,-0.375 -0.35938,-0.89062 0,-0.54688 0.375,-0.90625 0.375,-0.35938 0.875,-0.35938 z"
       fill-rule="nonzero"
       id="path13" />
    <path
       fill="#000000"
       d="m 182.39769,195.61177 v 10.96875 h 1.125 q 0.67187,0 0.95312,0.25 0.29688,0.26562 0.29688,0.6875 0,0.40625 -0.29688,0.67187 -0.28125,0.26563 -0.95312,0.26563 h -3 v -14.70313 h 3 q 0.67187,0 0.95312,0.26563 0.28125,0.25 0.28125,0.67187 0,0.40625 -0.28125,0.67188 -0.28125,0.25 -0.95312,0.25 z m 11.22682,-2.17188 v 10.21875 h 1.89063 q 0.67187,0 0.95312,0.26563 0.29688,0.26562 0.29688,0.6875 0,0.40625 -0.29688,0.67187 -0.28125,0.25 -0.95312,0.25 h -5.64063 q -0.67187,0 -0.96875,-0.25 -0.28125,-0.26562 -0.28125,-0.6875 0,-0.40625 0.28125,-0.67187 0.29688,-0.26563 0.96875,-0.26563 h 1.89063 v -7.78125 l -1.67188,0.4375 q -0.40625,0.10938 -0.60937,0.10938 -0.34375,0 -0.60938,-0.28125 -0.25,-0.28125 -0.25,-0.6875 0,-0.375 0.1875,-0.59375 0.1875,-0.21875 0.79688,-0.375 z m 12.91432,5.85938 q 0.82813,0.5625 1.23438,1.3125 0.40625,0.73437 0.40625,1.65625 0,0.98437 -0.54688,1.82812 -0.53125,0.84375 -1.5625,1.28125 -1.03125,0.42188 -2.70312,0.42188 -2.15625,0 -3.25,-0.67188 -0.60938,-0.375 -0.60938,-0.90625 0,-0.40625 0.26563,-0.67187 0.26562,-0.28125 0.65625,-0.28125 0.25,0 0.54687,0.17187 0.39063,0.28125 0.75,0.375 0.54688,0.125 1.5,0.125 1.64063,0 2.35938,-0.42187 0.73437,-0.42188 0.73437,-1.20313 0,-0.57812 -0.42187,-1.10937 -0.42188,-0.53125 -1.14063,-0.8125 -0.40625,-0.17188 -1.39062,-0.23438 -0.45313,-0.0312 -0.70313,-0.28125 -0.25,-0.26562 -0.25,-0.64062 0,-0.40625 0.26563,-0.67188 0.28125,-0.28125 0.6875,-0.28125 0.9375,0 1,-0.0156 0.35937,-0.0312 0.71875,-0.23438 0.375,-0.20312 0.59375,-0.54687 0.23437,-0.35938 0.23437,-0.71875 0,-0.59375 -0.53125,-1.03125 -0.51562,-0.4375 -1.57812,-0.4375 -1.34375,0 -2.04688,0.78125 -0.21875,0.23437 -0.34375,0.29687 -0.1875,0.0937 -0.42187,0.0937 -0.39063,0 -0.67188,-0.26562 -0.26562,-0.26563 -0.26562,-0.67188 0,-0.625 0.84375,-1.21875 1.21875,-0.875 3.04687,-0.875 1.73438,0 2.78125,0.98438 1.04688,0.98437 1.04688,2.375 0,0.71875 -0.3125,1.34375 -0.3125,0.625 -0.92188,1.15625 z m 9.94558,5.29687 q 0,0.53125 -0.375,0.89063 -0.35938,0.34375 -1.01563,0.34375 -0.65625,0 -1.03125,-0.34375 -0.375,-0.35938 -0.375,-0.89063 0,-0.53125 0.375,-0.875 0.375,-0.35937 1.03125,-0.35937 0.65625,0 1.01563,0.35937 0.375,0.34375 0.375,0.875 z m 12.44557,-5.29687 q 0.82812,0.5625 1.23437,1.3125 0.40625,0.73437 0.40625,1.65625 0,0.98437 -0.54687,1.82812 -0.53125,0.84375 -1.5625,1.28125 -1.03125,0.42188 -2.70313,0.42188 -2.15625,0 -3.25,-0.67188 -0.60937,-0.375 -0.60937,-0.90625 0,-0.40625 0.26562,-0.67187 0.26563,-0.28125 0.65625,-0.28125 0.25,0 0.54688,0.17187 0.39062,0.28125 0.75,0.375 0.54687,0.125 1.5,0.125 1.64062,0 2.35937,-0.42187 0.73438,-0.42188 0.73438,-1.20313 0,-0.57812 -0.42188,-1.10937 -0.42187,-0.53125 -1.14062,-0.8125 -0.40625,-0.17188 -1.39063,-0.23438 -0.45312,-0.0312 -0.70312,-0.28125 -0.25,-0.26562 -0.25,-0.64062 0,-0.40625 0.26562,-0.67188 0.28125,-0.28125 0.6875,-0.28125 0.9375,0 1,-0.0156 0.35938,-0.0312 0.71875,-0.23438 0.375,-0.20312 0.59375,-0.54687 0.23438,-0.35938 0.23438,-0.71875 0,-0.59375 -0.53125,-1.03125 -0.51563,-0.4375 -1.57813,-0.4375 -1.34375,0 -2.04687,0.78125 -0.21875,0.23437 -0.34375,0.29687 -0.1875,0.0937 -0.42188,0.0937 -0.39062,0 -0.67187,-0.26562 -0.26563,-0.26563 -0.26563,-0.67188 0,-0.625 0.84375,-1.21875 1.21875,-0.875 3.04688,-0.875 1.73437,0 2.78125,0.98438 1.04687,0.98437 1.04687,2.375 0,0.71875 -0.3125,1.34375 -0.3125,0.625 -0.92187,1.15625 z m 8.08619,3.71875 h 2.5 l -2.6875,5.0625 q -0.23437,0.45312 -0.59375,0.45312 -0.23437,0 -0.40625,-0.15625 -0.17187,-0.15625 -0.17187,-0.34375 0,-0.14062 0.0625,-0.375 z m 34.97736,-9.57813 v 10.21875 h 1.89063 q 0.67187,0 0.95312,0.26563 0.29688,0.26562 0.29688,0.6875 0,0.40625 -0.29688,0.67187 -0.28125,0.25 -0.95312,0.25 h -5.64063 q -0.67187,0 -0.96875,-0.25 -0.28125,-0.26562 -0.28125,-0.6875 0,-0.40625 0.28125,-0.67187 0.29688,-0.26563 0.96875,-0.26563 h 1.89063 v -7.78125 l -1.67188,0.4375 q -0.40625,0.10938 -0.60937,0.10938 -0.34375,0 -0.60938,-0.28125 -0.25,-0.28125 -0.25,-0.6875 0,-0.375 0.1875,-0.59375 0.1875,-0.21875 0.79688,-0.375 z m 8.67993,2.17188 v 2.21875 q 1.03125,-0.32813 1.875,-0.32813 1.73438,0 2.85938,1.1875 1.14062,1.17188 1.14062,3.03125 0,1.90625 -1.15625,3 -1.14062,1.07813 -3.51562,1.07813 -2.09375,0 -3.32813,-0.78125 -0.70312,-0.45313 -0.70312,-1.04688 0,-0.375 0.28125,-0.65625 0.28125,-0.28125 0.65625,-0.28125 0.3125,0 0.6875,0.3125 0.375,0.29688 0.78125,0.42188 0.59375,0.17187 1.5,0.17187 1.70312,0 2.3125,-0.53125 0.625,-0.54687 0.625,-1.67187 0,-1.10938 -0.60938,-1.73438 -0.59375,-0.625 -1.53125,-0.625 -1,0 -2.29687,0.65625 -0.29688,0.15625 -0.51563,0.15625 -0.39062,0 -0.67187,-0.29687 -0.26563,-0.29688 -0.26563,-0.75 v -5.39063 h 5.71875 q 0.67188,0 0.95313,0.26563 0.29687,0.25 0.29687,0.67187 0,0.40625 -0.29687,0.67188 -0.28125,0.25 -0.95313,0.25 z m 14.17997,8.98437 q 0,0.53125 -0.375,0.89063 -0.35938,0.34375 -1.01563,0.34375 -0.65625,0 -1.03125,-0.34375 -0.375,-0.35938 -0.375,-0.89063 0,-0.53125 0.375,-0.875 0.375,-0.35937 1.03125,-0.35937 0.65625,0 1.01563,0.35937 0.375,0.34375 0.375,0.875 z m 11.71118,-8.98437 h -4.28125 q -0.0312,0.54687 -0.28125,0.79687 -0.25,0.23438 -0.64063,0.23438 -0.42187,0 -0.6875,-0.28125 -0.25,-0.28125 -0.25,-0.95313 v -1.65625 h 8.09375 v 1.85938 l -3.01562,9 q -0.1875,0.5625 -0.42188,0.75 -0.23437,0.1875 -0.5625,0.1875 -0.39062,0 -0.67187,-0.26563 -0.28125,-0.28125 -0.28125,-0.64062 0,-0.1875 0.15625,-0.625 z m 8.82058,7.40625 h 2.5 l -2.6875,5.0625 q -0.23437,0.45312 -0.59375,0.45312 -0.23437,0 -0.40625,-0.15625 -0.17187,-0.15625 -0.17187,-0.34375 0,-0.14062 0.0625,-0.375 z m 34.97736,-9.57813 v 10.21875 h 1.89062 q 0.67188,0 0.95313,0.26563 0.29687,0.26562 0.29687,0.6875 0,0.40625 -0.29687,0.67187 -0.28125,0.25 -0.95313,0.25 h -5.64062 q -0.67188,0 -0.96875,-0.25 -0.28125,-0.26562 -0.28125,-0.6875 0,-0.40625 0.28125,-0.67187 0.29687,-0.26563 0.96875,-0.26563 h 1.89062 v -7.78125 l -1.67187,0.4375 q -0.40625,0.10938 -0.60938,0.10938 -0.34375,0 -0.60937,-0.28125 -0.25,-0.28125 -0.25,-0.6875 0,-0.375 0.1875,-0.59375 0.1875,-0.21875 0.79687,-0.375 z m 8.67993,2.17188 v 2.21875 q 1.03125,-0.32813 1.875,-0.32813 1.73438,0 2.85938,1.1875 1.14062,1.17188 1.14062,3.03125 0,1.90625 -1.15625,3 -1.14062,1.07813 -3.51562,1.07813 -2.09375,0 -3.32813,-0.78125 -0.70312,-0.45313 -0.70312,-1.04688 0,-0.375 0.28125,-0.65625 0.28125,-0.28125 0.65625,-0.28125 0.3125,0 0.6875,0.3125 0.375,0.29688 0.78125,0.42188 0.59375,0.17187 1.5,0.17187 1.70312,0 2.3125,-0.53125 0.625,-0.54687 0.625,-1.67187 0,-1.10938 -0.60938,-1.73438 -0.59375,-0.625 -1.53125,-0.625 -1,0 -2.29687,0.65625 -0.29688,0.15625 -0.51563,0.15625 -0.39062,0 -0.67187,-0.29687 -0.26563,-0.29688 -0.26563,-0.75 v -5.39063 h 5.71875 q 0.67188,0 0.95313,0.26563 0.29687,0.25 0.29687,0.67187 0,0.40625 -0.29687,0.67188 -0.28125,0.25 -0.95313,0.25 z m 14.17993,8.98437 q 0,0.53125 -0.375,0.89063 -0.35937,0.34375 -1.01562,0.34375 -0.65625,0 -1.03125,-0.34375 -0.375,-0.35938 -0.375,-0.89063 0,-0.53125 0.375,-0.875 0.375,-0.35937 1.03125,-0.35937 0.65625,0 1.01562,0.35937 0.375,0.34375 0.375,0.875 z m 8.21122,-8.98437 v 2.21875 q 1.03125,-0.32813 1.875,-0.32813 1.73437,0 2.85937,1.1875 1.14063,1.17188 1.14063,3.03125 0,1.90625 -1.15625,3 -1.14063,1.07813 -3.51563,1.07813 -2.09375,0 -3.32812,-0.78125 -0.70313,-0.45313 -0.70313,-1.04688 0,-0.375 0.28125,-0.65625 0.28125,-0.28125 0.65625,-0.28125 0.3125,0 0.6875,0.3125 0.375,0.29688 0.78125,0.42188 0.59375,0.17187 1.5,0.17187 1.70313,0 2.3125,-0.53125 0.625,-0.54687 0.625,-1.67187 0,-1.10938 -0.60937,-1.73438 -0.59375,-0.625 -1.53125,-0.625 -1,0 -2.29688,0.65625 -0.29687,0.15625 -0.51562,0.15625 -0.39063,0 -0.67188,-0.29687 -0.26562,-0.29688 -0.26562,-0.75 v -5.39063 h 5.71875 q 0.67187,0 0.95312,0.26563 0.29688,0.25 0.29688,0.67187 0,0.40625 -0.29688,0.67188 -0.28125,0.25 -0.95312,0.25 z m 12.32058,7.40625 h 2.5 l -2.6875,5.0625 q -0.23437,0.45312 -0.59375,0.45312 -0.23437,0 -0.40625,-0.15625 -0.17187,-0.15625 -0.17187,-0.34375 0,-0.14062 0.0625,-0.375 z m 34.97733,-9.57813 v 10.21875 h 1.89062 q 0.67188,0 0.95313,0.26563 0.29687,0.26562 0.29687,0.6875 0,0.40625 -0.29687,0.67187 -0.28125,0.25 -0.95313,0.25 h -5.64062 q -0.67188,0 -0.96875,-0.25 -0.28125,-0.26562 -0.28125,-0.6875 0,-0.40625 0.28125,-0.67187 0.29687,-0.26563 0.96875,-0.26563 h 1.89062 v -7.78125 l -1.67187,0.4375 q -0.40625,0.10938 -0.60938,0.10938 -0.34375,0 -0.60937,-0.28125 -0.25,-0.28125 -0.25,-0.6875 0,-0.375 0.1875,-0.59375 0.1875,-0.21875 0.79687,-0.375 z m 12.97683,0.3125 v 7.29688 q 0.59375,0 0.875,0.26562 0.28125,0.25 0.28125,0.67188 0,0.40625 -0.28125,0.67187 -0.28125,0.26563 -0.875,0.26563 v 0.73437 q 0.59375,0 0.875,0.26563 0.28125,0.26562 0.28125,0.6875 0,0.40625 -0.28125,0.67187 -0.28125,0.25 -0.95312,0.25 h -2.51563 q -0.67187,0 -0.96875,-0.25 -0.28125,-0.26562 -0.28125,-0.6875 0,-0.40625 0.28125,-0.67187 0.29688,-0.26563 0.96875,-0.26563 h 0.73438 v -0.73437 h -5.07813 v -1.5625 l 4.46875,-7.60938 z m -1.85937,7.29688 v -4.59375 l -2.70313,4.59375 z m 11.74243,3.54687 q 0,0.53125 -0.375,0.89063 -0.35937,0.34375 -1.01562,0.34375 -0.65625,0 -1.03125,-0.34375 -0.375,-0.35938 -0.375,-0.89063 0,-0.53125 0.375,-0.875 0.375,-0.35937 1.03125,-0.35937 0.65625,0 1.01562,0.35937 0.375,0.34375 0.375,0.875 z m 8.21118,-8.98437 v 2.21875 q 1.03125,-0.32813 1.875,-0.32813 1.73438,0 2.85938,1.1875 1.14062,1.17188 1.14062,3.03125 0,1.90625 -1.15625,3 -1.14062,1.07813 -3.51562,1.07813 -2.09375,0 -3.32813,-0.78125 -0.70312,-0.45313 -0.70312,-1.04688 0,-0.375 0.28125,-0.65625 0.28125,-0.28125 0.65625,-0.28125 0.3125,0 0.6875,0.3125 0.375,0.29688 0.78125,0.42188 0.59375,0.17187 1.5,0.17187 1.70312,0 2.3125,-0.53125 0.625,-0.54687 0.625,-1.67187 0,-1.10938 -0.60938,-1.73438 -0.59375,-0.625 -1.53125,-0.625 -1,0 -2.29687,0.65625 -0.29688,0.15625 -0.51563,0.15625 -0.39062,0 -0.67187,-0.29687 -0.26563,-0.29688 -0.26563,-0.75 v -5.39063 h 5.71875 q 0.67188,0 0.95313,0.26563 0.29687,0.25 0.29687,0.67187 0,0.40625 -0.29687,0.67188 -0.28125,0.25 -0.95313,0.25 z m 12.32056,7.40625 h 2.5 l -2.6875,5.0625 q -0.23437,0.45312 -0.59375,0.45312 -0.23437,0 -0.40625,-0.15625 -0.17187,-0.15625 -0.17187,-0.34375 0,-0.14062 0.0625,-0.375 z m 35.44605,1.57812 q 0,0.53125 -0.375,0.89063 -0.35938,0.34375 -1.01563,0.34375 -0.65625,0 -1.03125,-0.34375 -0.375,-0.35938 -0.375,-0.89063 0,-0.53125 0.375,-0.875 0.375,-0.35937 1.03125,-0.35937 0.65625,0 1.01563,0.35937 0.375,0.34375 0.375,0.875 z m 11.19555,0 q 0,0.53125 -0.375,0.89063 -0.35937,0.34375 -1.01562,0.34375 -0.65625,0 -1.03125,-0.34375 -0.375,-0.35938 -0.375,-0.89063 0,-0.53125 0.375,-0.875 0.375,-0.35937 1.03125,-0.35937 0.65625,0 1.01562,0.35937 0.375,0.34375 0.375,0.875 z m 11.19556,0 q 0,0.53125 -0.375,0.89063 -0.35938,0.34375 -1.01563,0.34375 -0.65625,0 -1.03125,-0.34375 -0.375,-0.35938 -0.375,-0.89063 0,-0.53125 0.375,-0.875 0.375,-0.35937 1.03125,-0.35937 0.65625,0 1.01563,0.35937 0.375,0.34375 0.375,0.875 z m 8.86743,1.98438 v -10.96875 h -1.14062 q -0.67188,0 -0.95313,-0.25 -0.28125,-0.26563 -0.28125,-0.67188 0,-0.42187 0.28125,-0.67187 0.28125,-0.26563 0.95313,-0.26563 h 3 v 14.70313 h -2.98438 q -0.67187,0 -0.96875,-0.26563 -0.28125,-0.26562 -0.28125,-0.67187 0,-0.42188 0.28125,-0.6875 0.29688,-0.25 0.96875,-0.25 z"
       fill-rule="nonzero"
       id="path15" />
    <path
       fill="#000000"
       d="m 574.2333,193.73677 v 11.01562 h 2.67187 q 0.26563,0 0.39063,0.10938 0.125,0.10937 0.125,0.28125 0,0.17187 -0.125,0.28125 -0.125,0.10937 -0.39063,0.10937 h -6.125 q -0.28125,0 -0.40625,-0.10937 -0.125,-0.10938 -0.125,-0.28125 0,-0.17188 0.125,-0.28125 0.125,-0.10938 0.40625,-0.10938 h 2.67188 v -9.9375 l -2.54688,0.79688 q -0.1875,0.0469 -0.26562,0.0469 -0.14063,0 -0.26563,-0.10937 -0.10937,-0.125 -0.10937,-0.28125 0,-0.14063 0.0937,-0.25 0.0781,-0.0781 0.3125,-0.15625 z m 12.60498,5.45312 q 1.07812,0.48438 1.64062,1.32813 0.57813,0.84375 0.57813,1.75 0,1.40625 -1.14063,2.48437 -1.14062,1.0625 -2.84375,1.0625 -1,0 -2.07812,-0.42187 -1.07813,-0.4375 -1.5,-0.875 -0.14063,-0.15625 -0.14063,-0.32813 0,-0.14062 0.0937,-0.25 0.10938,-0.10937 0.26563,-0.10937 0.14062,0 0.32812,0.14062 1.4375,1.0625 3.04688,1.0625 1.35937,0 2.26562,-0.84375 0.92188,-0.85937 0.92188,-1.89062 0,-0.70313 -0.45313,-1.35938 -0.45312,-0.67187 -1.29687,-1.0625 -0.84375,-0.39062 -1.70313,-0.39062 -0.28125,0 -0.40625,-0.0937 -0.10937,-0.10938 -0.10937,-0.28125 0,-0.17188 0.10937,-0.28125 0.10938,-0.10938 0.34375,-0.10938 h 0.67188 q 1.04687,0 1.71875,-0.64062 0.6875,-0.64063 0.6875,-1.48438 0,-0.875 -0.71875,-1.53125 -0.70313,-0.67187 -1.85938,-0.67187 -0.79687,0 -1.48437,0.28125 -0.67188,0.28125 -1.07813,0.75 -0.15625,0.1875 -0.23437,0.23437 -0.0781,0.0469 -0.17188,0.0469 -0.15625,0 -0.28125,-0.10938 -0.10937,-0.10937 -0.10937,-0.26562 0,-0.35938 0.8125,-0.9375 1.125,-0.78125 2.54687,-0.78125 1.48438,0 2.42188,0.89062 0.95312,0.875 0.95312,2.10938 0,0.78125 -0.45312,1.48437 -0.45313,0.6875 -1.34375,1.09375 z m 9.63623,4.10938 h 0.34375 q 0.51562,0 0.89062,0.375 0.375,0.35937 0.375,0.875 0,0.53125 -0.375,0.90625 -0.375,0.35937 -0.89062,0.35937 h -0.34375 q -0.51563,0 -0.89063,-0.35937 -0.35937,-0.375 -0.35937,-0.89063 0,-0.54687 0.375,-0.90625 0.375,-0.35937 0.875,-0.35937 z m 11.96435,-9.5625 v 11.01562 h 2.67188 q 0.26562,0 0.39062,0.10938 0.125,0.10937 0.125,0.28125 0,0.17187 -0.125,0.28125 -0.125,0.10937 -0.39062,0.10937 h -6.125 q -0.28125,0 -0.40625,-0.10937 -0.125,-0.10938 -0.125,-0.28125 0,-0.17188 0.125,-0.28125 0.125,-0.10938 0.40625,-0.10938 h 2.67187 v -9.9375 l -2.54687,0.79688 q -0.1875,0.0469 -0.26563,0.0469 -0.14062,0 -0.26562,-0.10937 -0.10938,-0.125 -0.10938,-0.28125 0,-0.14063 0.0937,-0.25 0.0781,-0.0781 0.3125,-0.15625 z"
       fill-rule="nonzero"
       id="path17" />
    <path
       fill="#000000"
       d="m 67.97289,245.42738 v 4.125 h 2.03125 q 0.28125,0 0.390625,0.10937 0.125,0.10938 0.125,0.28125 0,0.17188 -0.125,0.28125 -0.109375,0.10938 -0.390625,0.10938 h -4.84375 q -0.265625,0 -0.390625,-0.10938 -0.125,-0.10937 -0.125,-0.28125 0,-0.17187 0.109375,-0.28125 0.125,-0.10937 0.40625,-0.10937 h 2.03125 v -4.125 l -3.421875,-5.17188 h -0.46875 q -0.28125,0 -0.40625,-0.0937 -0.109375,-0.10937 -0.109375,-0.29687 0,-0.17188 0.109375,-0.28125 0.125,-0.10938 0.40625,-0.10938 h 2.140625 q 0.28125,0 0.390625,0.10938 0.125,0.10937 0.125,0.28125 0,0.1875 -0.125,0.29687 -0.109375,0.0937 -0.390625,0.0937 h -0.765625 l 2.90625,4.39063 2.859375,-4.39063 h -0.765625 q -0.28125,0 -0.40625,-0.0937 -0.125,-0.10937 -0.125,-0.29687 0,-0.17188 0.125,-0.28125 0.125,-0.10938 0.40625,-0.10938 h 2.140625 q 0.265625,0 0.390625,0.10938 0.125,0.10937 0.125,0.28125 0,0.1875 -0.125,0.29687 -0.125,0.0937 -0.390625,0.0937 h -0.46875 z m 16.16748,10.10937 H 73.780995 q -0.28125,0 -0.40625,-0.10937 -0.109375,-0.10938 -0.109375,-0.28125 0,-0.17188 0.109375,-0.28125 0.125,-0.10938 0.40625,-0.10938 H 84.14037 q 0.296875,0 0.40625,0.10938 0.125,0.10937 0.125,0.28125 0,0.17187 -0.125,0.28125 -0.109375,0.10937 -0.40625,0.10937 z m 4.620605,-13.23437 h 4.234375 q 0.28125,0 0.390625,0.10937 0.125,0.10938 0.125,0.28125 0,0.17188 -0.125,0.28125 -0.109375,0.10938 -0.390625,0.10938 h -4.234375 v 5.1875 q 0,0.6875 0.546875,1.14062 0.546875,0.45313 1.59375,0.45313 0.78125,0 1.703125,-0.23438 0.921875,-0.25 1.4375,-0.54687 0.1875,-0.10938 0.296875,-0.10938 0.15625,0 0.265625,0.125 0.109375,0.10938 0.109375,0.26563 0,0.14062 -0.125,0.25 -0.296875,0.3125 -1.4375,0.67187 -1.140625,0.35938 -2.1875,0.35938 -1.375,0 -2.1875,-0.64063 -0.796875,-0.64062 -0.796875,-1.73437 v -5.1875 h -1.4375 q -0.28125,0 -0.40625,-0.10938 -0.109375,-0.10937 -0.109375,-0.28125 0,-0.17187 0.109375,-0.28125 0.125,-0.10937 0.40625,-0.10937 h 1.4375 v -2.29688 q 0,-0.28125 0.109375,-0.40625 0.109375,-0.125 0.28125,-0.125 0.171875,0 0.28125,0.125 0.109375,0.125 0.109375,0.40625 z m 12.073735,0 v 1.96875 q 1.53125,-1.375 2.28125,-1.76563 0.75,-0.40625 1.39062,-0.40625 0.70313,0 1.29688,0.46875 0.59375,0.46875 0.59375,0.71875 0,0.17188 -0.10938,0.29688 -0.10937,0.10937 -0.29687,0.10937 -0.0937,0 -0.15625,-0.0312 -0.0625,-0.0312 -0.23438,-0.21875 -0.32812,-0.3125 -0.57812,-0.4375 -0.23438,-0.125 -0.46875,-0.125 -0.5,0 -1.21875,0.40625 -0.71875,0.40625 -2.5,2 v 4.26563 h 3.45312 q 0.28125,0 0.40625,0.10937 0.125,0.10938 0.125,0.28125 0,0.17188 -0.125,0.28125 -0.125,0.10938 -0.40625,0.10938 h -6.109375 q -0.28125,0 -0.40625,-0.10938 -0.109375,-0.10937 -0.109375,-0.26562 0,-0.15625 0.109375,-0.26563 0.109375,-0.10937 0.40625,-0.10937 h 1.875005 v -6.5 h -1.437505 q -0.28125,0 -0.40625,-0.10938 -0.109375,-0.10937 -0.109375,-0.28125 0,-0.17187 0.109375,-0.28125 0.125,-0.10937 0.40625,-0.10937 z m 14.57373,8.03125 v -1.125 q -1.6875,1.4375 -3.625,1.4375 -1.40625,0 -2.1875,-0.70313 -0.78125,-0.71875 -0.78125,-1.75 0,-1.14062 1.03125,-1.98437 1.04687,-0.84375 3.03125,-0.84375 0.54687,0 1.17187,0.0781 0.625,0.0625 1.35938,0.21875 v -1.26562 q 0,-0.64063 -0.59375,-1.10938 -0.59375,-0.48437 -1.78125,-0.48437 -0.90625,0 -2.54688,0.53125 -0.29687,0.0937 -0.375,0.0937 -0.15625,0 -0.26562,-0.10938 -0.10938,-0.10937 -0.10938,-0.28125 0,-0.15625 0.0937,-0.25 0.14063,-0.14062 1.0625,-0.375 1.4375,-0.39062 2.1875,-0.39062 1.46875,0 2.29688,0.73437 0.82812,0.71875 0.82812,1.64063 v 5.15625 h 1.03125 q 0.29688,0 0.40625,0.10937 0.125,0.10938 0.125,0.28125 0,0.17188 -0.125,0.28125 -0.10937,0.10938 -0.40625,0.10938 z m 0,-3.875 q -0.54688,-0.15625 -1.15625,-0.23438 -0.60938,-0.0781 -1.28125,-0.0781 -1.70313,0 -2.65625,0.73437 -0.73438,0.54688 -0.73438,1.3125 0,0.70313 0.54688,1.1875 0.5625,0.48438 1.625,0.48438 1,0 1.85937,-0.40625 0.875,-0.40625 1.79688,-1.28125 z m 9.5581,-8.15625 v 2.01562 h -1.15625 v -2.01562 z m 0.0156,4 v 7.25 h 3.06249 q 0.29687,0 0.40625,0.10937 0.125,0.10938 0.125,0.28125 0,0.17188 -0.125,0.28125 -0.10938,0.10938 -0.40625,0.10938 h -6.90624 q -0.26563,0 -0.39063,-0.10938 -0.125,-0.10937 -0.125,-0.28125 0,-0.17187 0.125,-0.28125 0.125,-0.10937 0.39063,-0.10937 h 3.0625 v -6.46875 h -2.26563 q -0.28125,0 -0.40625,-0.10938 -0.125,-0.10937 -0.125,-0.28125 0,-0.17187 0.125,-0.28125 0.125,-0.10937 0.40625,-0.10937 z m 8.47997,0 v 1.17187 q 0.8125,-0.82812 1.46875,-1.14062 0.65625,-0.3125 1.48437,-0.3125 0.89063,0 1.625,0.375 0.51563,0.28125 0.9375,0.9375 0.42188,0.64062 0.42188,1.3125 v 4.90625 h 0.65625 q 0.28125,0 0.40625,0.10937 0.125,0.10938 0.125,0.28125 0,0.17188 -0.125,0.28125 -0.125,0.10938 -0.40625,0.10938 h -2.07813 q -0.29687,0 -0.42187,-0.10938 -0.10938,-0.10937 -0.10938,-0.28125 0,-0.17187 0.10938,-0.28125 0.125,-0.10937 0.42187,-0.10937 h 0.64063 v -4.78125 q 0,-0.82813 -0.60938,-1.39063 -0.59375,-0.57812 -1.60937,-0.57812 -0.76563,0 -1.32813,0.3125 -0.5625,0.3125 -1.60937,1.54687 v 4.89063 h 0.875 q 0.28125,0 0.39062,0.10937 0.125,0.10938 0.125,0.28125 0,0.17188 -0.125,0.28125 -0.10937,0.10938 -0.39062,0.10938 h -2.54688 q -0.26562,0 -0.39062,-0.10938 -0.125,-0.10937 -0.125,-0.28125 0,-0.17187 0.125,-0.28125 0.125,-0.10937 0.39062,-0.10937 h 0.89063 v -6.46875 h -0.65625 q -0.28125,0 -0.40625,-0.10938 -0.125,-0.10937 -0.125,-0.28125 0,-0.17187 0.125,-0.28125 0.125,-0.10937 0.40625,-0.10937 z m 13.7456,0 h 0.34375 q 0.51563,0 0.89063,0.375 0.375,0.35937 0.375,0.875 0,0.54687 -0.375,0.90625 -0.375,0.35937 -0.89063,0.35937 h -0.34375 q -0.51562,0 -0.89062,-0.35937 -0.35938,-0.375 -0.35938,-0.89063 0,-0.54687 0.375,-0.90625 0.375,-0.35937 0.875,-0.35937 z m 0,5.79687 h 0.34375 q 0.51563,0 0.89063,0.375 0.375,0.35938 0.375,0.875 0,0.53125 -0.375,0.90625 -0.375,0.35938 -0.89063,0.35938 h -0.34375 q -0.51562,0 -0.89062,-0.35938 -0.35938,-0.375 -0.35938,-0.89062 0,-0.54688 0.375,-0.90625 0.375,-0.35938 0.875,-0.35938 z m 46.16992,-9.5625 v 11.01563 h 2.67188 q 0.26562,0 0.39062,0.10937 0.125,0.10938 0.125,0.28125 0,0.17188 -0.125,0.28125 -0.125,0.10938 -0.39062,0.10938 h -6.125 q -0.28125,0 -0.40625,-0.10938 -0.125,-0.10937 -0.125,-0.28125 0,-0.17187 0.125,-0.28125 0.125,-0.10937 0.40625,-0.10937 h 2.67187 v -9.9375 l -2.54687,0.79687 q -0.1875,0.0469 -0.26563,0.0469 -0.14062,0 -0.26562,-0.10938 -0.10938,-0.125 -0.10938,-0.28125 0,-0.14062 0.0937,-0.25 0.0781,-0.0781 0.3125,-0.15625 z m 12.60498,5.45313 q 1.07813,0.48437 1.64063,1.32812 0.57812,0.84375 0.57812,1.75 0,1.40625 -1.14062,2.48438 -1.14063,1.0625 -2.84375,1.0625 -1,0 -2.07813,-0.42188 -1.07812,-0.4375 -1.5,-0.875 -0.14062,-0.15625 -0.14062,-0.32812 0,-0.14063 0.0937,-0.25 0.10937,-0.10938 0.26562,-0.10938 0.14063,0 0.32813,0.14063 1.4375,1.0625 3.04687,1.0625 1.35938,0 2.26563,-0.84375 0.92187,-0.85938 0.92187,-1.89063 0,-0.70312 -0.45312,-1.35937 -0.45313,-0.67188 -1.29688,-1.0625 -0.84375,-0.39063 -1.70312,-0.39063 -0.28125,0 -0.40625,-0.0937 -0.10938,-0.10937 -0.10938,-0.28125 0,-0.17187 0.10938,-0.28125 0.10937,-0.10937 0.34375,-0.10937 h 0.67187 q 1.04688,0 1.71875,-0.64063 0.6875,-0.64062 0.6875,-1.48437 0,-0.875 -0.71875,-1.53125 -0.70312,-0.67188 -1.85937,-0.67188 -0.79688,0 -1.48438,0.28125 -0.67187,0.28125 -1.07812,0.75 -0.15625,0.1875 -0.23438,0.23438 -0.0781,0.0469 -0.17187,0.0469 -0.15625,0 -0.28125,-0.10937 -0.10938,-0.10938 -0.10938,-0.26563 0,-0.35937 0.8125,-0.9375 1.125,-0.78125 2.54688,-0.78125 1.48437,0 2.42187,0.89063 0.95313,0.875 0.95313,2.10937 0,0.78125 -0.45313,1.48438 -0.45312,0.6875 -1.34375,1.09375 z m 9.63623,4.10937 h 0.34375 q 0.51563,0 0.89063,0.375 0.375,0.35938 0.375,0.875 0,0.53125 -0.375,0.90625 -0.375,0.35938 -0.89063,0.35938 h -0.34375 q -0.51562,0 -0.89062,-0.35938 -0.35938,-0.375 -0.35938,-0.89062 0,-0.54688 0.375,-0.90625 0.375,-0.35938 0.875,-0.35938 z m 13.16748,-4.10937 q 1.07813,0.48437 1.64063,1.32812 0.57812,0.84375 0.57812,1.75 0,1.40625 -1.14062,2.48438 -1.14063,1.0625 -2.84375,1.0625 -1,0 -2.07813,-0.42188 -1.07812,-0.4375 -1.5,-0.875 -0.14062,-0.15625 -0.14062,-0.32812 0,-0.14063 0.0937,-0.25 0.10937,-0.10938 0.26562,-0.10938 0.14063,0 0.32813,0.14063 1.4375,1.0625 3.04687,1.0625 1.35938,0 2.26563,-0.84375 0.92187,-0.85938 0.92187,-1.89063 0,-0.70312 -0.45312,-1.35937 -0.45313,-0.67188 -1.29688,-1.0625 -0.84375,-0.39063 -1.70312,-0.39063 -0.28125,0 -0.40625,-0.0937 -0.10938,-0.10937 -0.10938,-0.28125 0,-0.17187 0.10938,-0.28125 0.10937,-0.10937 0.34375,-0.10937 h 0.67187 q 1.04688,0 1.71875,-0.64063 0.6875,-0.64062 0.6875,-1.48437 0,-0.875 -0.71875,-1.53125 -0.70312,-0.67188 -1.85937,-0.67188 -0.79688,0 -1.48438,0.28125 -0.67187,0.28125 -1.07812,0.75 -0.15625,0.1875 -0.23438,0.23438 -0.0781,0.0469 -0.17187,0.0469 -0.15625,0 -0.28125,-0.10937 -0.10938,-0.10938 -0.10938,-0.26563 0,-0.35937 0.8125,-0.9375 1.125,-0.78125 2.54688,-0.78125 1.48437,0 2.42187,0.89063 0.95313,0.875 0.95313,2.10937 0,0.78125 -0.45313,1.48438 -0.45312,0.6875 -1.34375,1.09375 z m 8.26123,3.54687 h 2.53125 l -2.75,5.10938 q -0.25,0.46875 -0.60937,0.46875 -0.23438,0 -0.39063,-0.17188 -0.15625,-0.15625 -0.15625,-0.375 0,-0.0937 0.0156,-0.21875 z"
       fill-rule="nonzero"
       id="path19" />
    <path
       fill="#000000"
       d="m 262.2107,240.41176 v 10.96875 h 1.125 q 0.67187,0 0.95312,0.25 0.29688,0.26562 0.29688,0.6875 0,0.40625 -0.29688,0.67187 -0.28125,0.26563 -0.95312,0.26563 h -3 v -14.70313 h 3 q 0.67187,0 0.95312,0.26563 0.28125,0.25 0.28125,0.67187 0,0.40625 -0.28125,0.67188 -0.28125,0.25 -0.95312,0.25 z m 11.22681,-2.17188 v 10.21875 h 1.89062 q 0.67188,0 0.95313,0.26563 0.29687,0.26562 0.29687,0.6875 0,0.40625 -0.29687,0.67187 -0.28125,0.25 -0.95313,0.25 h -5.64062 q -0.67188,0 -0.96875,-0.25 -0.28125,-0.26562 -0.28125,-0.6875 0,-0.40625 0.28125,-0.67187 0.29687,-0.26563 0.96875,-0.26563 h 1.89062 v -7.78125 l -1.67187,0.4375 q -0.40625,0.10938 -0.60938,0.10938 -0.34375,0 -0.60937,-0.28125 -0.25,-0.28125 -0.25,-0.6875 0,-0.375 0.1875,-0.59375 0.1875,-0.21875 0.79687,-0.375 z m 8.67996,2.17188 v 2.21875 q 1.03125,-0.32813 1.875,-0.32813 1.73437,0 2.85937,1.1875 1.14063,1.17188 1.14063,3.03125 0,1.90625 -1.15625,3 -1.14063,1.07813 -3.51563,1.07813 -2.09375,0 -3.32812,-0.78125 -0.70313,-0.45313 -0.70313,-1.04688 0,-0.375 0.28125,-0.65625 0.28125,-0.28125 0.65625,-0.28125 0.3125,0 0.6875,0.3125 0.375,0.29688 0.78125,0.42188 0.59375,0.17187 1.5,0.17187 1.70313,0 2.3125,-0.53125 0.625,-0.54687 0.625,-1.67187 0,-1.10938 -0.60937,-1.73438 -0.59375,-0.625 -1.53125,-0.625 -1,0 -2.29688,0.65625 -0.29687,0.15625 -0.51562,0.15625 -0.39063,0 -0.67188,-0.29687 -0.26562,-0.29688 -0.26562,-0.75 v -5.39063 h 5.71875 q 0.67187,0 0.95312,0.26563 0.29688,0.25 0.29688,0.67187 0,0.40625 -0.29688,0.67188 -0.28125,0.25 -0.95312,0.25 z m 14.17993,8.98437 q 0,0.53125 -0.375,0.89063 -0.35937,0.34375 -1.01562,0.34375 -0.65625,0 -1.03125,-0.34375 -0.375,-0.35938 -0.375,-0.89063 0,-0.53125 0.375,-0.875 0.375,-0.35937 1.03125,-0.35937 0.65625,0 1.01562,0.35937 0.375,0.34375 0.375,0.875 z m 11.71121,-8.98437 h -4.28125 q -0.0312,0.54687 -0.28125,0.79687 -0.25,0.23438 -0.64062,0.23438 -0.42188,0 -0.6875,-0.28125 -0.25,-0.28125 -0.25,-0.95313 v -1.65625 h 8.09375 v 1.85938 l -3.01563,9 q -0.1875,0.5625 -0.42187,0.75 -0.23438,0.1875 -0.5625,0.1875 -0.39063,0 -0.67188,-0.26563 -0.28125,-0.28125 -0.28125,-0.64062 0,-0.1875 0.15625,-0.625 z m 8.82056,7.40625 h 2.5 l -2.6875,5.0625 q -0.23438,0.45312 -0.59375,0.45312 -0.23438,0 -0.40625,-0.15625 -0.17188,-0.15625 -0.17188,-0.34375 0,-0.14062 0.0625,-0.375 z m 34.97736,-9.57813 v 10.21875 h 1.89062 q 0.67188,0 0.95313,0.26563 0.29687,0.26562 0.29687,0.6875 0,0.40625 -0.29687,0.67187 -0.28125,0.25 -0.95313,0.25 h -5.64062 q -0.67188,0 -0.96875,-0.25 -0.28125,-0.26562 -0.28125,-0.6875 0,-0.40625 0.28125,-0.67187 0.29687,-0.26563 0.96875,-0.26563 h 1.89062 v -7.78125 l -1.67187,0.4375 q -0.40625,0.10938 -0.60938,0.10938 -0.34375,0 -0.60937,-0.28125 -0.25,-0.28125 -0.25,-0.6875 0,-0.375 0.1875,-0.59375 0.1875,-0.21875 0.79687,-0.375 z m 8.67993,2.17188 v 2.21875 q 1.03125,-0.32813 1.875,-0.32813 1.73437,0 2.85937,1.1875 1.14063,1.17188 1.14063,3.03125 0,1.90625 -1.15625,3 -1.14063,1.07813 -3.51563,1.07813 -2.09375,0 -3.32812,-0.78125 -0.70313,-0.45313 -0.70313,-1.04688 0,-0.375 0.28125,-0.65625 0.28125,-0.28125 0.65625,-0.28125 0.3125,0 0.6875,0.3125 0.375,0.29688 0.78125,0.42188 0.59375,0.17187 1.5,0.17187 1.70313,0 2.3125,-0.53125 0.625,-0.54687 0.625,-1.67187 0,-1.10938 -0.60937,-1.73438 -0.59375,-0.625 -1.53125,-0.625 -1,0 -2.29688,0.65625 -0.29687,0.15625 -0.51562,0.15625 -0.39063,0 -0.67188,-0.29687 -0.26562,-0.29688 -0.26562,-0.75 v -5.39063 h 5.71875 q 0.67187,0 0.95312,0.26563 0.29688,0.25 0.29688,0.67187 0,0.40625 -0.29688,0.67188 -0.28125,0.25 -0.95312,0.25 z m 14.17996,8.98437 q 0,0.53125 -0.375,0.89063 -0.35938,0.34375 -1.01563,0.34375 -0.65625,0 -1.03125,-0.34375 -0.375,-0.35938 -0.375,-0.89063 0,-0.53125 0.375,-0.875 0.375,-0.35937 1.03125,-0.35937 0.65625,0 1.01563,0.35937 0.375,0.34375 0.375,0.875 z m 8.21121,-8.98437 v 2.21875 q 1.03125,-0.32813 1.875,-0.32813 1.73438,0 2.85938,1.1875 1.14062,1.17188 1.14062,3.03125 0,1.90625 -1.15625,3 -1.14062,1.07813 -3.51562,1.07813 -2.09375,0 -3.32813,-0.78125 -0.70312,-0.45313 -0.70312,-1.04688 0,-0.375 0.28125,-0.65625 0.28125,-0.28125 0.65625,-0.28125 0.3125,0 0.6875,0.3125 0.375,0.29688 0.78125,0.42188 0.59375,0.17187 1.5,0.17187 1.70312,0 2.3125,-0.53125 0.625,-0.54687 0.625,-1.67187 0,-1.10938 -0.60938,-1.73438 -0.59375,-0.625 -1.53125,-0.625 -1,0 -2.29687,0.65625 -0.29688,0.15625 -0.51563,0.15625 -0.39062,0 -0.67187,-0.29687 -0.26563,-0.29688 -0.26563,-0.75 v -5.39063 h 5.71875 q 0.67188,0 0.95313,0.26563 0.29687,0.25 0.29687,0.67187 0,0.40625 -0.29687,0.67188 -0.28125,0.25 -0.95313,0.25 z m 12.32056,7.40625 h 2.5 l -2.6875,5.0625 q -0.23438,0.45312 -0.59375,0.45312 -0.23438,0 -0.40625,-0.15625 -0.17188,-0.15625 -0.17188,-0.34375 0,-0.14062 0.0625,-0.375 z m 34.97735,-9.57813 v 10.21875 h 1.89063 q 0.67187,0 0.95312,0.26563 0.29688,0.26562 0.29688,0.6875 0,0.40625 -0.29688,0.67187 -0.28125,0.25 -0.95312,0.25 h -5.64063 q -0.67187,0 -0.96875,-0.25 -0.28125,-0.26562 -0.28125,-0.6875 0,-0.40625 0.28125,-0.67187 0.29688,-0.26563 0.96875,-0.26563 h 1.89063 v -7.78125 l -1.67188,0.4375 q -0.40625,0.10938 -0.60937,0.10938 -0.34375,0 -0.60938,-0.28125 -0.25,-0.28125 -0.25,-0.6875 0,-0.375 0.1875,-0.59375 0.1875,-0.21875 0.79688,-0.375 z m 12.97681,0.3125 v 7.29688 q 0.59375,0 0.875,0.26562 0.28125,0.25 0.28125,0.67188 0,0.40625 -0.28125,0.67187 -0.28125,0.26563 -0.875,0.26563 v 0.73437 q 0.59375,0 0.875,0.26563 0.28125,0.26562 0.28125,0.6875 0,0.40625 -0.28125,0.67187 -0.28125,0.25 -0.95312,0.25 h -2.51563 q -0.67187,0 -0.96875,-0.25 -0.28125,-0.26562 -0.28125,-0.6875 0,-0.40625 0.28125,-0.67187 0.29688,-0.26563 0.96875,-0.26563 h 0.73438 v -0.73437 h -5.07813 v -1.5625 l 4.46875,-7.60938 z m -1.85937,7.29688 v -4.59375 l -2.70313,4.59375 z m 11.74243,3.54687 q 0,0.53125 -0.375,0.89063 -0.35938,0.34375 -1.01563,0.34375 -0.65625,0 -1.03125,-0.34375 -0.375,-0.35938 -0.375,-0.89063 0,-0.53125 0.375,-0.875 0.375,-0.35937 1.03125,-0.35937 0.65625,0 1.01563,0.35937 0.375,0.34375 0.375,0.875 z m 8.21121,-8.98437 v 2.21875 q 1.03125,-0.32813 1.875,-0.32813 1.73438,0 2.85938,1.1875 1.14062,1.17188 1.14062,3.03125 0,1.90625 -1.15625,3 -1.14062,1.07813 -3.51562,1.07813 -2.09375,0 -3.32813,-0.78125 -0.70312,-0.45313 -0.70312,-1.04688 0,-0.375 0.28125,-0.65625 0.28125,-0.28125 0.65625,-0.28125 0.3125,0 0.6875,0.3125 0.375,0.29688 0.78125,0.42188 0.59375,0.17187 1.5,0.17187 1.70312,0 2.3125,-0.53125 0.625,-0.54687 0.625,-1.67187 0,-1.10938 -0.60938,-1.73438 -0.59375,-0.625 -1.53125,-0.625 -1,0 -2.29687,0.65625 -0.29688,0.15625 -0.51563,0.15625 -0.39062,0 -0.67187,-0.29687 -0.26563,-0.29688 -0.26563,-0.75 v -5.39063 h 5.71875 q 0.67188,0 0.95313,0.26563 0.29687,0.25 0.29687,0.67187 0,0.40625 -0.29687,0.67188 -0.28125,0.25 -0.95313,0.25 z m 12.32059,7.40625 h 2.5 l -2.6875,5.0625 q -0.23438,0.45312 -0.59375,0.45312 -0.23438,0 -0.40625,-0.15625 -0.17188,-0.15625 -0.17188,-0.34375 0,-0.14062 0.0625,-0.375 z m 35.44607,1.57812 q 0,0.53125 -0.375,0.89063 -0.35937,0.34375 -1.01562,0.34375 -0.65625,0 -1.03125,-0.34375 -0.375,-0.35938 -0.375,-0.89063 0,-0.53125 0.375,-0.875 0.375,-0.35937 1.03125,-0.35937 0.65625,0 1.01562,0.35937 0.375,0.34375 0.375,0.875 z m 11.19559,0 q 0,0.53125 -0.375,0.89063 -0.35938,0.34375 -1.01563,0.34375 -0.65625,0 -1.03125,-0.34375 -0.375,-0.35938 -0.375,-0.89063 0,-0.53125 0.375,-0.875 0.375,-0.35937 1.03125,-0.35937 0.65625,0 1.01563,0.35937 0.375,0.34375 0.375,0.875 z m 11.19556,0 q 0,0.53125 -0.375,0.89063 -0.35938,0.34375 -1.01563,0.34375 -0.65625,0 -1.03125,-0.34375 -0.375,-0.35938 -0.375,-0.89063 0,-0.53125 0.375,-0.875 0.375,-0.35937 1.03125,-0.35937 0.65625,0 1.01563,0.35937 0.375,0.34375 0.375,0.875 z m 9.33618,-1.57812 h 2.5 l -2.6875,5.0625 q -0.23438,0.45312 -0.59375,0.45312 -0.23438,0 -0.40625,-0.15625 -0.17188,-0.15625 -0.17188,-0.34375 0,-0.14062 0.0625,-0.375 z m 34.97729,-9.57813 v 10.21875 h 1.89063 q 0.67187,0 0.95312,0.26563 0.29688,0.26562 0.29688,0.6875 0,0.40625 -0.29688,0.67187 -0.28125,0.25 -0.95312,0.25 h -5.64063 q -0.67187,0 -0.96875,-0.25 -0.28125,-0.26562 -0.28125,-0.6875 0,-0.40625 0.28125,-0.67187 0.29688,-0.26563 0.96875,-0.26563 h 1.89063 v -7.78125 l -1.67188,0.4375 q -0.40625,0.10938 -0.60937,0.10938 -0.34375,0 -0.60938,-0.28125 -0.25,-0.28125 -0.25,-0.6875 0,-0.375 0.1875,-0.59375 0.1875,-0.21875 0.79688,-0.375 z m 12.91431,5.85938 q 0.82813,0.5625 1.23438,1.3125 0.40625,0.73437 0.40625,1.65625 0,0.98437 -0.54688,1.82812 -0.53125,0.84375 -1.5625,1.28125 -1.03125,0.42188 -2.70312,0.42188 -2.15625,0 -3.25,-0.67188 -0.60938,-0.375 -0.60938,-0.90625 0,-0.40625 0.26563,-0.67187 0.26562,-0.28125 0.65625,-0.28125 0.25,0 0.54687,0.17187 0.39063,0.28125 0.75,0.375 0.54688,0.125 1.5,0.125 1.64063,0 2.35938,-0.42187 0.73437,-0.42188 0.73437,-1.20313 0,-0.57812 -0.42187,-1.10937 -0.42188,-0.53125 -1.14063,-0.8125 -0.40625,-0.17188 -1.39062,-0.23438 -0.45313,-0.0312 -0.70313,-0.28125 -0.25,-0.26562 -0.25,-0.64062 0,-0.40625 0.26563,-0.67188 0.28125,-0.28125 0.6875,-0.28125 0.9375,0 1,-0.0156 0.35937,-0.0312 0.71875,-0.23438 0.375,-0.20312 0.59375,-0.54687 0.23437,-0.35938 0.23437,-0.71875 0,-0.59375 -0.53125,-1.03125 -0.51562,-0.4375 -1.57812,-0.4375 -1.34375,0 -2.04688,0.78125 -0.21875,0.23437 -0.34375,0.29687 -0.1875,0.0937 -0.42187,0.0937 -0.39063,0 -0.67188,-0.26562 -0.26562,-0.26563 -0.26562,-0.67188 0,-0.625 0.84375,-1.21875 1.21875,-0.875 3.04687,-0.875 1.73438,0 2.78125,0.98438 1.04688,0.98437 1.04688,2.375 0,0.71875 -0.3125,1.34375 -0.3125,0.625 -0.92188,1.15625 z m 9.94556,5.29687 q 0,0.53125 -0.375,0.89063 -0.35938,0.34375 -1.01563,0.34375 -0.65625,0 -1.03125,-0.34375 -0.375,-0.35938 -0.375,-0.89063 0,-0.53125 0.375,-0.875 0.375,-0.35937 1.03125,-0.35937 0.65625,0 1.01563,0.35937 0.375,0.34375 0.375,0.875 z m 10.7268,-11.15625 v 10.21875 h 1.89063 q 0.67187,0 0.95312,0.26563 0.29688,0.26562 0.29688,0.6875 0,0.40625 -0.29688,0.67187 -0.28125,0.25 -0.95312,0.25 h -5.64063 q -0.67187,0 -0.96875,-0.25 -0.28125,-0.26562 -0.28125,-0.6875 0,-0.40625 0.28125,-0.67187 0.29688,-0.26563 0.96875,-0.26563 h 1.89063 v -7.78125 l -1.67188,0.4375 q -0.40625,0.10938 -0.60937,0.10938 -0.34375,0 -0.60938,-0.28125 -0.25,-0.28125 -0.25,-0.6875 0,-0.375 0.1875,-0.59375 0.1875,-0.21875 0.79688,-0.375 z m 9.33619,13.14063 v -10.96875 h -1.14063 q -0.67187,0 -0.95312,-0.25 -0.28125,-0.26563 -0.28125,-0.67188 0,-0.42187 0.28125,-0.67187 0.28125,-0.26563 0.95312,-0.26563 h 3 v 14.70313 h -2.98437 q -0.67188,0 -0.96875,-0.26563 -0.28125,-0.26562 -0.28125,-0.67187 0,-0.42188 0.28125,-0.6875 0.29687,-0.25 0.96875,-0.25 z"
       fill-rule="nonzero"
       id="path21" />
    <path
       fill="#000000"
       fill-opacity="0"
       d="m 220.13124,212.28346 46.48817,21.70079"
       fill-rule="evenodd"
       id="path23" />
    <path
       stroke="#000000"
       stroke-width="1"
       stroke-linejoin="round"
       stroke-linecap="butt"
       d="m 220.13124,212.28346 41.05135,19.16287"
       fill-rule="evenodd"
       id="path25" />
    <path
       fill="#000000"
       stroke="#000000"
       stroke-width="1"
       stroke-linecap="butt"
       d="m 260.48395,232.94302 4.81079,0.42287 -3.41348,-3.41625 z"
       fill-rule="evenodd"
       id="path27" />
    <path
       fill="#000000"
       fill-opacity="0"
       d="m 298.08136,212.28346 46.48819,21.70079"
       fill-rule="evenodd"
       id="path29" />
    <path
       stroke="#000000"
       stroke-width="1"
       stroke-linejoin="round"
       stroke-linecap="butt"
       d="m 298.08136,212.28346 41.05136,19.16287"
       fill-rule="evenodd"
       id="path31" />
    <path
       fill="#000000"
       stroke="#000000"
       stroke-width="1"
       stroke-linecap="butt"
       d="m 338.43408,232.94302 4.81079,0.42287 -3.41348,-3.41625 z"
       fill-rule="evenodd"
       id="path33" />
    <path
       fill="#000000"
       fill-opacity="0"
       d="m 376.0315,212.28346 46.48819,21.70079"
       fill-rule="evenodd"
       id="path35" />
    <path
       stroke="#000000"
       stroke-width="1"
       stroke-linejoin="round"
       stroke-linecap="butt"
       d="m 376.0315,212.28346 41.05139,19.16287"
       fill-rule="evenodd"
       id="path37" />
    <path
       fill="#000000"
       stroke="#000000"
       stroke-width="1"
       stroke-linecap="butt"
       d="m 416.38422,232.94302 4.81079,0.42287 -3.41348,-3.41625 z"
       fill-rule="evenodd"
       id="path39" />
  </g>
</svg>
